<?xml version="1.0" encoding="UTF-8" standalone="no"?>
<svg
   width="398.9921"
   height="210.9528"
   version="1.1"
   id="svg1"
   xml:space="preserve"
   sodipodi:docname="BackgroundSplash2.svg"
   inkscape:export-filename="BackgroundSplash1.png"
   inkscape:export-xdpi="96"
   inkscape:export-ydpi="96"
   inkscape:version="1.4.2 (f4327f4, 2025-05-13)"
   xmlns:inkscape="http://www.inkscape.org/namespaces/inkscape"
   xmlns:sodipodi="http://sodipodi.sourceforge.net/DTD/sodipodi-0.dtd"
   xmlns="http://www.w3.org/2000/svg"
   xmlns:svg="http://www.w3.org/2000/svg"><sodipodi:namedview
     id="namedview1"
     pagecolor="#ffffff"
     bordercolor="#000000"
     borderopacity="0.25"
     inkscape:showpageshadow="2"
     inkscape:pageopacity="0.0"
     inkscape:pagecheckerboard="0"
     inkscape:deskcolor="#d1d1d1"
     inkscape:zoom="1.1145218"
     inkscape:cx="-39.478815"
     inkscape:cy="227.45181"
     inkscape:window-width="1920"
     inkscape:window-height="1009"
     inkscape:window-x="1912"
     inkscape:window-y="-8"
     inkscape:window-maximized="1"
     inkscape:current-layer="layer1"><inkscape:page
       x="0"
       y="0"
       width="398.9921"
       height="210.9528"
       id="page1"
       margin="0"
       bleed="0" /></sodipodi:namedview><defs
     id="defs1" /><g
     id="layer1"
     transform="translate(-0.634447,-358.0467)"><g
       inkscape:groupmode="layer"
       id="layer2"
       inkscape:label="Layer 1" /><rect
       style="fill:#ffffff;stroke-width:0;stroke-opacity:0"
       id="rect1"
       width="408.58487"
       height="224.5948"
       x="-4.4411402"
       y="351.4845" /><path
       style="fill:#b8d5bd;fill-opacity:1;stroke:none;stroke-width:0;stroke-opacity:0"
       d="m 285.00751,47.015106 c 0,0 16.87783,-3.633511 18.52273,-9.476682 1.42484,-5.061409 -4.74941,-9.045923 -10.44872,-7.322891 -5.6993,1.723034 -8.07401,16.799573 -8.07401,16.799573 z"
       id="path2"
       sodipodi:nodetypes="cssc" /><path
       style="fill:#b8d5bd;fill-opacity:1;stroke:none;stroke-width:0;stroke-opacity:0"
       d="m 329.86141,18.83918 c 0,0 5.12554,-12.9718954 14.60446,-13.6765754 7.24286,-0.538448 11.99228,5.1691004 10.09251,9.7997504 -3.57541,8.715036 -24.69697,3.876825 -24.69697,3.876825 z"
       id="path3"
       sodipodi:nodetypes="cssc" /><path
       style="fill:#d4b8d5;fill-opacity:1;stroke:none;stroke-width:0;stroke-opacity:0"
       d="m 292.60878,416.48737 c -11.93528,7.75365 -46.89812,-51.81757 -75.78536,-15.93134 -12.71343,15.79371 26.42814,40.06052 20.03423,59.8754 -6.3939,19.81488 -66.95251,41.73679 -41.3769,70.5976 25.57562,28.8608 64.39496,-18.90661 87.83927,-9.42993 23.44432,9.47669 16.16824,39.583 45.15394,43.45983 28.9857,3.87683 16.19789,-26.70701 32.39578,-30.15308 16.19789,-3.44607 57.9714,27.99928 69.48043,3.87682 11.50902,-24.12246 -49.44619,-46.95264 -35.80587,-55.99858 13.64034,-9.04592 54.1069,-11.41989 60.95522,-18.5226 16.19789,-16.79957 3.83635,-43.07582 -16.19788,-43.50658 -20.03424,-0.43077 -67.2783,-0.96321 -80.66267,-3.54283 -15.84995,-3.05483 -15.17506,-15.14343 -19.25591,-30.51082 -6.38553,-24.04619 -32.09216,-32.46478 -43.05779,-13.85403 -12.42138,21.08144 6.79114,37.3357 -3.71649,43.64014 z"
       id="path6"
       sodipodi:nodetypes="csssssssssssssc" /><path
       style="fill:#d4b8d5;fill-opacity:1;stroke:none;stroke-width:7.95529;stroke-linecap:round;stroke-linejoin:round"
       d="m 146.88551,426.30244 c 0,0 -3.21478,-3.71041 -12.76111,-12.64292 -6.69019,-6.26003 -18.51337,-3.36723 -14.39902,4.86395 6.80854,13.6212 27.16013,7.77897 27.16013,7.77897 z"
       id="path1"
       sodipodi:nodetypes="cssc" /><path
       style="fill:#d4b8d5;fill-opacity:1;stroke:none;stroke-width:8.01066;stroke-linecap:round;stroke-linejoin:round"
       d="m 105.37442,515.73232 c 0,0 -13.88144,-0.58323 -17.514464,0.0441 -8.425645,1.45494 -4.280119,12.19938 1.250218,9.96313 5.177655,-2.09365 16.264246,-10.00726 16.264246,-10.00726 z"
       id="path1-8"
       sodipodi:nodetypes="cssc" /></g><g
     inkscape:groupmode="layer"
     id="layer3"
     inkscape:label="Layer 2"
     transform="translate(0,3.5889833)" /></svg>
