<?xml version="1.0" encoding="UTF-8" standalone="no"?>
<svg
   width="403.43326"
   height="301.26218"
   version="1.1"
   id="svg1"
   xml:space="preserve"
   sodipodi:docname="BackgroundSplash1.svg"
   inkscape:export-filename="BackgroundSplash1.png"
   inkscape:export-xdpi="96"
   inkscape:export-ydpi="96"
   inkscape:version="1.4.2 (f4327f4, 2025-05-13)"
   xmlns:inkscape="http://www.inkscape.org/namespaces/inkscape"
   xmlns:sodipodi="http://sodipodi.sourceforge.net/DTD/sodipodi-0.dtd"
   xmlns="http://www.w3.org/2000/svg"
   xmlns:svg="http://www.w3.org/2000/svg"><sodipodi:namedview
     id="namedview1"
     pagecolor="#ffffff"
     bordercolor="#000000"
     borderopacity="0.25"
     inkscape:showpageshadow="2"
     inkscape:pageopacity="0.0"
     inkscape:pagecheckerboard="0"
     inkscape:deskcolor="#d1d1d1"
     inkscape:zoom="1.5761719"
     inkscape:cx="222.69145"
     inkscape:cy="154.48823"
     inkscape:window-width="1920"
     inkscape:window-height="1009"
     inkscape:window-x="1912"
     inkscape:window-y="-8"
     inkscape:window-maximized="1"
     inkscape:current-layer="layer1"><inkscape:page
       x="0"
       y="0"
       width="403.43326"
       height="301.26218"
       id="page1"
       margin="0"
       bleed="0" /></sodipodi:namedview><defs
     id="defs1" /><g
     id="layer1"><g
       inkscape:groupmode="layer"
       id="layer2"
       inkscape:label="Layer 1" /><rect
       style="fill:#ffffff;stroke-width:0;stroke-opacity:0"
       id="rect1"
       width="446.65179"
       height="196.04462"
       x="-1.2688972"
       y="130.69641" /><path
       style="fill:#b8d5bd;fill-opacity:1;stroke:none;stroke-width:0;stroke-opacity:0"
       d="m 198.70076,16.512123 c 49.36455,-22.5288609 63.1431,-14.424648 68.29109,-6.6653573 13.11524,19.7679003 -16.19038,31.5234383 -14.33994,43.3792773 3.31785,21.257617 25.78359,21.942151 40.81493,18.893176 11.39187,-2.310743 77.74023,-10.800252 108.60088,26.499266 13.01198,15.726845 23.26033,56.775145 -19.51216,81.360415 -39.41778,22.65702 -77.53703,-13.41309 -85.74604,2.18605 -7.23294,13.74432 40.00592,35.3195 -6.07729,54.21831 -31.96968,13.11084 -52.53786,-40.03556 -74.66156,-24.70476 -29.7942,20.64614 9.63826,38.60425 -19.68526,62.10336 -21.67616,17.37071 -47.53952,21.23485 -75.07795,15.14301 C 93.769026,282.83303 66.230588,270.64935 61.528904,240.79932 56.827219,210.9493 98.003644,222.5189 91.016774,203.5279 82.689531,180.89364 33.775193,220.10141 23.301143,188.89285 12.380758,156.35439 69.829066,157.41906 70.304006,139.6482 70.824844,120.16004 -8.1132259,117.55182 1.9846827,84.464776 14.698665,42.805852 76.112758,78.046696 109.02454,64.644644 141.93634,51.242591 149.33622,39.040983 198.70076,16.512123 Z"
       id="path1"
       sodipodi:nodetypes="zssssssssssssssssz" /><path
       style="fill:#b8d5bd;fill-opacity:1;stroke:none;stroke-width:0;stroke-opacity:0"
       d="m 431.4206,143.07019 c 0,0 1.0129,-10.62544 11.75481,-14.69962 13.0609,-4.95373 16.2235,9.87099 10.09252,11.89969 -8.52418,2.82058 -21.84733,2.79993 -21.84733,2.79993 z"
       id="path4"
       sodipodi:nodetypes="cssc" /><path
       style="fill:#b8d5bd;fill-opacity:1;stroke:none;stroke-width:0;stroke-opacity:0"
       d="m 51.863699,260.56603 c 0,0 -21.847326,2.90762 -24.696976,7.32289 -2.639238,4.08926 -0.415573,8.23826 5.22436,8.1844 7.264811,-0.0693 19.472616,-15.50729 19.472616,-15.50729 z"
       id="path5"
       sodipodi:nodetypes="cscc" /></g></svg>
