<?xml version="1.0" encoding="UTF-8" standalone="no"?>
<svg
   viewBox="0 0 512 384"
   version="1.1"
   id="svg1"
   sodipodi:docname="EmailIcon.svg"
   width="512"
   height="384"
   inkscape:version="1.4.2 (f4327f4, 2025-05-13)"
   xmlns:inkscape="http://www.inkscape.org/namespaces/inkscape"
   xmlns:sodipodi="http://sodipodi.sourceforge.net/DTD/sodipodi-0.dtd"
   xmlns="http://www.w3.org/2000/svg"
   xmlns:svg="http://www.w3.org/2000/svg">
  <defs
     id="defs1" />
  <sodipodi:namedview
     id="namedview1"
     pagecolor="#ffffff"
     bordercolor="#000000"
     borderopacity="0.25"
     inkscape:showpageshadow="2"
     inkscape:pageopacity="0.0"
     inkscape:pagecheckerboard="0"
     inkscape:deskcolor="#d1d1d1"
     inkscape:zoom="1.2609375"
     inkscape:cx="255.36555"
     inkscape:cy="192.31722"
     inkscape:window-width="1920"
     inkscape:window-height="1009"
     inkscape:window-x="1912"
     inkscape:window-y="-8"
     inkscape:window-maximized="1"
     inkscape:current-layer="svg1" />
  <!--!Font Awesome Free v7.0.1 by @fontawesome - https://fontawesome.com License - https://fontawesome.com/license/free Copyright 2025 Fonticons, Inc.-->
  <path
     d="M 48,0 C 21.5,0 0,21.5 0,48 0,63.1 7.1,77.3 19.2,86.4 l 208,156 c 17.1,12.8 40.5,12.8 57.6,0 l 208,-156 C 504.9,77.3 512,63.1 512,48 512,21.5 490.5,0 464,0 Z M 0,132 v 188 c 0,35.3 28.7,64 64,64 h 384 c 35.3,0 64,-28.7 64,-64 V 132 L 313.6,280.8 c -34.1,25.6 -81.1,25.6 -115.2,0 z"
     id="path1" fill="#615642"/>
</svg>
