<?xml version="1.0" encoding="UTF-8" standalone="no"?>
<svg
   viewBox="0 0 448 448"
   version="1.1"
   id="svg1"
   sodipodi:docname="FacebookIcon.svg"
   width="448"
   height="448"
   inkscape:version="1.4.2 (f4327f4, 2025-05-13)"
   xmlns:inkscape="http://www.inkscape.org/namespaces/inkscape"
   xmlns:sodipodi="http://sodipodi.sourceforge.net/DTD/sodipodi-0.dtd"
   xmlns="http://www.w3.org/2000/svg"
   xmlns:svg="http://www.w3.org/2000/svg">
  <defs
     id="defs1" />
  <sodipodi:namedview
     id="namedview1"
     pagecolor="#ffffff"
     bordercolor="#000000"
     borderopacity="0.25"
     inkscape:showpageshadow="2"
     inkscape:pageopacity="0.0"
     inkscape:pagecheckerboard="0"
     inkscape:deskcolor="#d1d1d1"
     inkscape:zoom="1.2609375"
     inkscape:cx="223.64312"
     inkscape:cy="224.03965"
     inkscape:window-width="1920"
     inkscape:window-height="1009"
     inkscape:window-x="1912"
     inkscape:window-y="-8"
     inkscape:window-maximized="1"
     inkscape:current-layer="svg1" />
  <!--!Font Awesome Free v7.0.1 by @fontawesome - https://fontawesome.com License - https://fontawesome.com/license/free Copyright 2025 Fonticons, Inc.-->
  <path
     d="M 64,0 C 28.7,0 0,28.7 0,64 v 320 c 0,35.3 28.7,64 64,64 h 98.2 V 302.2 H 109.4 V 224 h 52.8 v -33.7 c 0,-87.1 39.4,-127.5 125,-127.5 16.2,0 44.2,3.2 55.7,6.4 V 140 c -6,-0.6 -16.5,-1 -29.6,-1 -42,0 -58.2,15.9 -58.2,57.2 V 224 h 83.6 l -14.4,78.2 H 255 V 448 h 129 c 35.3,0 64,-28.7 64,-64 V 64 C 448,28.7 419.3,0 384,0 Z"
     id="path1" fill="#615642"/>
</svg>
